# MagicaVoxel @ Ephtracy

# group
o 

# material
mtllib Enemy.mtl
usemtl palette

# normals
vn -1 0 0
vn 1 0 0
vn 0 0 1
vn 0 0 -1
vn 0 -1 0
vn 0 1 0

# texcoords
vt 0.412109 0.5
vt 0.654297 0.5
vt 0.994141 0.5

# verts
v -1 1 -0.1
v -1 1 -0.4
v -1 1.2 -0.1
v -1 1.2 -0.4
v -0.9 0.9 -0.1
v -0.9 0.9 -0.4
v -0.9 1 -2.98023e-08
v -0.9 1 -0.1
v -0.9 1 -0.4
v -0.9 1 -0.5
v -0.9 1.2 -2.98023e-08
v -0.9 1.2 -0.1
v -0.9 1.2 -0.4
v -0.9 1.2 -0.5
v -0.9 1.5 -0.1
v -0.9 1.5 -0.4
v -0.9 1.7 -0.1
v -0.9 1.7 -0.2
v -0.9 1.7 -0.3
v -0.9 1.7 -0.4
v -0.9 1.8 -0.2
v -0.9 1.8 -0.3
v -0.8 1.5 -0.4
v -0.8 1.5 -0.5
v -0.8 1.7 -0.1
v -0.8 1.7 -0.2
v -0.8 1.7 -0.3
v -0.8 1.7 -0.4
v -0.8 1.7 -0.5
v -0.8 1.8 -0.1
v -0.8 1.8 -0.2
v -0.8 1.8 -0.3
v -0.8 1.8 -0.4
v -0.8 1.9 -0.2
v -0.8 1.9 -0.3
v -0.7 0 0.3
v -0.7 0 -0.4
v -0.7 0.2 0.3
v -0.7 0.2 -0.1
v -0.7 0.8 -0.1
v -0.7 0.8 -0.4
v -0.7 0.9 -0.1
v -0.7 0.9 -0.4
v -0.7 1.6 -0.5
v -0.7 1.6 -0.6
v -0.7 1.7 -0.4
v -0.7 1.7 -0.5
v -0.7 1.7 -0.6
v -0.7 1.8 -0.1
v -0.7 1.8 -0.2
v -0.7 1.8 -0.3
v -0.7 1.8 -0.4
v -0.7 1.8 -0.5
v -0.7 1.9 -0.1
v -0.7 1.9 -0.2
v -0.7 1.9 -0.3
v -0.7 1.9 -0.4
v -0.7 2 -0.2
v -0.7 2 -0.3
v -0.6 0.9 -0.4
v -0.6 0.9 -0.5
v -0.6 1.4 -0.4
v -0.6 1.4 -0.5
v -0.6 1.7 -0.5
v -0.6 1.7 -0.6
v -0.6 1.8 -0.4
v -0.6 1.8 -0.5
v -0.6 1.8 -0.6
v -0.6 1.9 -0.1
v -0.6 1.9 -0.2
v -0.6 1.9 -0.3
v -0.6 1.9 -0.4
v -0.6 1.9 -0.5
v -0.6 2 -0.1
v -0.6 2 -0.2
v -0.6 2 -0.3
v -0.6 2 -0.4
v -0.5 1 -0.5
v -0.5 1 -0.6
v -0.5 1.3 -0.5
v -0.5 1.3 -0.6
v -0.4 1.1 -0.6
v -0.4 1.1 -0.7
v -0.4 1.2 -0.6
v -0.4 1.2 -0.7
v -0.4 1.3 -2.98023e-08
v -0.4 1.3 -0.1
v -0.4 1.7 -2.98023e-08
v -0.4 1.7 -0.1
v 0.1 1.3 -2.98023e-08
v 0.1 1.3 -0.1
v 0.1 1.7 -2.98023e-08
v 0.1 1.7 -0.1
v 0.3 0 0.3
v 0.3 0 -0.4
v 0.3 0.2 0.3
v 0.3 0.2 -0.1
v 0.3 0.8 -0.1
v 0.3 0.8 -0.4
v 0.7 1 -2.98023e-08
v 0.7 1 -0.1
v 0.7 1 -0.4
v 0.7 1 -0.5
v 0.7 1.2 -2.98023e-08
v 0.7 1.2 -0.1
v 0.7 1.2 -0.4
v 0.7 1.2 -0.5
v -0.7 1 -2.98023e-08
v -0.7 1 -0.1
v -0.7 1 -0.4
v -0.7 1 -0.5
v -0.7 1.2 -2.98023e-08
v -0.7 1.2 -0.1
v -0.7 1.2 -0.4
v -0.7 1.2 -0.5
v -0.3 0 0.3
v -0.3 0 -0.4
v -0.3 0.2 0.3
v -0.3 0.2 -0.1
v -0.3 0.8 -0.1
v -0.3 0.8 -0.4
v -0.1 1.3 -2.98023e-08
v -0.1 1.3 -0.1
v -0.1 1.7 -2.98023e-08
v -0.1 1.7 -0.1
v 0.4 1.1 -0.6
v 0.4 1.1 -0.7
v 0.4 1.2 -0.6
v 0.4 1.2 -0.7
v 0.4 1.3 -2.98023e-08
v 0.4 1.3 -0.1
v 0.4 1.7 -2.98023e-08
v 0.4 1.7 -0.1
v 0.5 1 -0.5
v 0.5 1 -0.6
v 0.5 1.3 -0.5
v 0.5 1.3 -0.6
v 0.6 0.9 -0.4
v 0.6 0.9 -0.5
v 0.6 1.4 -0.4
v 0.6 1.4 -0.5
v 0.6 1.7 -0.5
v 0.6 1.7 -0.6
v 0.6 1.8 -0.4
v 0.6 1.8 -0.5
v 0.6 1.8 -0.6
v 0.6 1.9 -0.4
v 0.6 1.9 -0.5
v 0.7 0 0.3
v 0.7 0 -0.4
v 0.7 0.2 0.3
v 0.7 0.2 -0.1
v 0.7 0.8 -0.1
v 0.7 0.8 -0.4
v 0.7 0.9 -0.1
v 0.7 0.9 -0.4
v 0.7 1.6 -0.5
v 0.7 1.6 -0.6
v 0.7 1.7 -0.4
v 0.7 1.7 -0.5
v 0.7 1.7 -0.6
v 0.7 1.8 -0.1
v 0.7 1.8 -0.2
v 0.7 1.8 -0.3
v 0.7 1.8 -0.4
v 0.7 1.8 -0.5
v 0.7 1.9 -0.2
v 0.7 1.9 -0.3
v 0.7 2 -0.1
v 0.7 2 -0.4
v 0.8 1.5 -0.4
v 0.8 1.5 -0.5
v 0.8 1.7 -0.1
v 0.8 1.7 -0.2
v 0.8 1.7 -0.3
v 0.8 1.7 -0.4
v 0.8 1.7 -0.5
v 0.8 1.8 -0.1
v 0.8 1.8 -0.2
v 0.8 1.8 -0.3
v 0.8 1.8 -0.4
v 0.8 1.9 -0.2
v 0.8 1.9 -0.3
v 0.9 0.9 -0.1
v 0.9 0.9 -0.4
v 0.9 1 -2.98023e-08
v 0.9 1 -0.1
v 0.9 1 -0.4
v 0.9 1 -0.5
v 0.9 1.2 -2.98023e-08
v 0.9 1.2 -0.1
v 0.9 1.2 -0.4
v 0.9 1.2 -0.5
v 0.9 1.5 -0.1
v 0.9 1.5 -0.4
v 0.9 1.7 -0.1
v 0.9 1.7 -0.2
v 0.9 1.7 -0.3
v 0.9 1.7 -0.4
v 0.9 1.8 -0.2
v 0.9 1.8 -0.3
v 1 1 -0.1
v 1 1 -0.4
v 1 1.2 -0.1
v 1 1.2 -0.4
v -0.7 0 0.3
v -0.7 0.2 0.3
v -0.3 0 0.3
v -0.3 0.2 0.3
v 0.3 0 0.3
v 0.3 0.2 0.3
v 0.7 0 0.3
v 0.7 0.2 0.3
v -0.9 1 -2.98023e-08
v -0.9 1.2 -2.98023e-08
v -0.7 1 -2.98023e-08
v -0.7 1.2 -2.98023e-08
v -0.4 1.3 -2.98023e-08
v -0.4 1.7 -2.98023e-08
v -0.1 1.3 -2.98023e-08
v -0.1 1.7 -2.98023e-08
v 0.1 1.3 -2.98023e-08
v 0.1 1.7 -2.98023e-08
v 0.4 1.3 -2.98023e-08
v 0.4 1.7 -2.98023e-08
v 0.7 1 -2.98023e-08
v 0.7 1.2 -2.98023e-08
v 0.9 1 -2.98023e-08
v 0.9 1.2 -2.98023e-08
v -1 1 -0.1
v -1 1.2 -0.1
v -0.9 0.9 -0.1
v -0.9 1 -0.1
v -0.9 1.2 -0.1
v -0.9 1.5 -0.1
v -0.9 1.7 -0.1
v -0.8 1.7 -0.1
v -0.8 1.8 -0.1
v -0.7 0.2 -0.1
v -0.7 0.8 -0.1
v -0.7 0.9 -0.1
v -0.7 1 -0.1
v -0.7 1.2 -0.1
v -0.7 1.5 -0.1
v -0.7 1.8 -0.1
v -0.7 1.9 -0.1
v -0.6 1.9 -0.1
v -0.6 2 -0.1
v -0.4 1.3 -0.1
v -0.4 1.7 -0.1
v -0.3 0.2 -0.1
v -0.3 0.8 -0.1
v -0.1 1.3 -0.1
v -0.1 1.7 -0.1
v 0.1 1.3 -0.1
v 0.1 1.7 -0.1
v 0.3 0.2 -0.1
v 0.3 0.8 -0.1
v 0.4 1.3 -0.1
v 0.4 1.7 -0.1
v 0.7 0.2 -0.1
v 0.7 0.8 -0.1
v 0.7 0.9 -0.1
v 0.7 1 -0.1
v 0.7 1.2 -0.1
v 0.7 1.5 -0.1
v 0.7 1.8 -0.1
v 0.7 2 -0.1
v 0.8 1.7 -0.1
v 0.8 1.8 -0.1
v 0.9 0.9 -0.1
v 0.9 1 -0.1
v 0.9 1.2 -0.1
v 0.9 1.5 -0.1
v 0.9 1.7 -0.1
v 1 1 -0.1
v 1 1.2 -0.1
v -0.9 1.7 -0.2
v -0.9 1.8 -0.2
v -0.8 1.7 -0.2
v -0.8 1.8 -0.2
v -0.8 1.9 -0.2
v -0.7 1.8 -0.2
v -0.7 1.9 -0.2
v -0.7 2 -0.2
v -0.6 1.9 -0.2
v -0.6 2 -0.2
v 0.7 1.8 -0.2
v 0.7 1.9 -0.2
v 0.8 1.7 -0.2
v 0.8 1.8 -0.2
v 0.8 1.9 -0.2
v 0.9 1.7 -0.2
v 0.9 1.8 -0.2
v -0.9 1.7 -0.3
v -0.9 1.8 -0.3
v -0.8 1.7 -0.3
v -0.8 1.8 -0.3
v -0.8 1.9 -0.3
v -0.7 1.8 -0.3
v -0.7 1.9 -0.3
v -0.7 2 -0.3
v -0.6 1.9 -0.3
v -0.6 2 -0.3
v 0.7 1.8 -0.3
v 0.7 1.9 -0.3
v 0.8 1.7 -0.3
v 0.8 1.8 -0.3
v 0.8 1.9 -0.3
v 0.9 1.7 -0.3
v 0.9 1.8 -0.3
v -1 1 -0.4
v -1 1.2 -0.4
v -0.9 0.9 -0.4
v -0.9 1 -0.4
v -0.9 1.2 -0.4
v -0.9 1.5 -0.4
v -0.9 1.7 -0.4
v -0.8 1.5 -0.4
v -0.8 1.7 -0.4
v -0.8 1.8 -0.4
v -0.7 0 -0.4
v -0.7 0.8 -0.4
v -0.7 0.9 -0.4
v -0.7 1 -0.4
v -0.7 1.2 -0.4
v -0.7 1.5 -0.4
v -0.7 1.7 -0.4
v -0.7 1.8 -0.4
v -0.7 1.9 -0.4
v -0.6 0.9 -0.4
v -0.6 1.4 -0.4
v -0.6 1.8 -0.4
v -0.6 1.9 -0.4
v -0.6 2 -0.4
v -0.3 0 -0.4
v -0.3 0.8 -0.4
v 0.3 0 -0.4
v 0.3 0.8 -0.4
v 0.6 0.9 -0.4
v 0.6 1.4 -0.4
v 0.6 1.8 -0.4
v 0.6 1.9 -0.4
v 0.7 0 -0.4
v 0.7 0.8 -0.4
v 0.7 0.9 -0.4
v 0.7 1 -0.4
v 0.7 1.2 -0.4
v 0.7 1.5 -0.4
v 0.7 1.7 -0.4
v 0.7 1.8 -0.4
v 0.7 2 -0.4
v 0.8 1.5 -0.4
v 0.8 1.7 -0.4
v 0.8 1.8 -0.4
v 0.9 0.9 -0.4
v 0.9 1 -0.4
v 0.9 1.2 -0.4
v 0.9 1.5 -0.4
v 0.9 1.7 -0.4
v 1 1 -0.4
v 1 1.2 -0.4
v -0.9 1 -0.5
v -0.9 1.2 -0.5
v -0.8 1.5 -0.5
v -0.8 1.7 -0.5
v -0.7 1 -0.5
v -0.7 1.2 -0.5
v -0.7 1.6 -0.5
v -0.7 1.7 -0.5
v -0.7 1.8 -0.5
v -0.6 0.9 -0.5
v -0.6 1.4 -0.5
v -0.6 1.7 -0.5
v -0.6 1.8 -0.5
v -0.6 1.9 -0.5
v -0.5 1 -0.5
v -0.5 1.3 -0.5
v 0.5 1 -0.5
v 0.5 1.3 -0.5
v 0.6 0.9 -0.5
v 0.6 1.4 -0.5
v 0.6 1.7 -0.5
v 0.6 1.8 -0.5
v 0.6 1.9 -0.5
v 0.7 1 -0.5
v 0.7 1.2 -0.5
v 0.7 1.6 -0.5
v 0.7 1.7 -0.5
v 0.7 1.8 -0.5
v 0.8 1.5 -0.5
v 0.8 1.7 -0.5
v 0.9 1 -0.5
v 0.9 1.2 -0.5
v -0.7 1.6 -0.6
v -0.7 1.7 -0.6
v -0.6 1.7 -0.6
v -0.6 1.8 -0.6
v -0.5 1 -0.6
v -0.5 1.3 -0.6
v -0.4 1.1 -0.6
v -0.4 1.2 -0.6
v 0.4 1.1 -0.6
v 0.4 1.2 -0.6
v 0.5 1 -0.6
v 0.5 1.3 -0.6
v 0.6 1.7 -0.6
v 0.6 1.8 -0.6
v 0.7 1.6 -0.6
v 0.7 1.7 -0.6
v -0.4 1.1 -0.7
v -0.4 1.2 -0.7
v 0.4 1.1 -0.7
v 0.4 1.2 -0.7
v -0.7 0 0.3
v -0.3 0 0.3
v 0.3 0 0.3
v 0.7 0 0.3
v -0.7 0 -0.4
v -0.3 0 -0.4
v 0.3 0 -0.4
v 0.7 0 -0.4
v -0.3 0.8 -0.1
v 0.3 0.8 -0.1
v -0.3 0.8 -0.4
v 0.3 0.8 -0.4
v -0.9 0.9 -0.1
v -0.7 0.9 -0.1
v 0.7 0.9 -0.1
v 0.9 0.9 -0.1
v -0.9 0.9 -0.4
v -0.7 0.9 -0.4
v -0.6 0.9 -0.4
v 0.6 0.9 -0.4
v 0.7 0.9 -0.4
v 0.9 0.9 -0.4
v -0.6 0.9 -0.5
v 0.6 0.9 -0.5
v -0.9 1 -2.98023e-08
v -0.7 1 -2.98023e-08
v 0.7 1 -2.98023e-08
v 0.9 1 -2.98023e-08
v -1 1 -0.1
v -0.9 1 -0.1
v -0.7 1 -0.1
v 0.7 1 -0.1
v 0.9 1 -0.1
v 1 1 -0.1
v -1 1 -0.4
v -0.9 1 -0.4
v -0.7 1 -0.4
v 0.7 1 -0.4
v 0.9 1 -0.4
v 1 1 -0.4
v -0.9 1 -0.5
v -0.7 1 -0.5
v -0.5 1 -0.5
v 0.5 1 -0.5
v 0.7 1 -0.5
v 0.9 1 -0.5
v -0.5 1 -0.6
v 0.5 1 -0.6
v -0.4 1.1 -0.6
v 0.4 1.1 -0.6
v -0.4 1.1 -0.7
v 0.4 1.1 -0.7
v -0.4 1.3 -2.98023e-08
v -0.1 1.3 -2.98023e-08
v 0.1 1.3 -2.98023e-08
v 0.4 1.3 -2.98023e-08
v -0.4 1.3 -0.1
v -0.1 1.3 -0.1
v 0.1 1.3 -0.1
v 0.4 1.3 -0.1
v -0.8 1.5 -0.4
v -0.7 1.5 -0.4
v 0.7 1.5 -0.4
v 0.8 1.5 -0.4
v -0.8 1.5 -0.5
v 0.8 1.5 -0.5
v -0.7 1.6 -0.5
v 0.7 1.6 -0.5
v -0.7 1.6 -0.6
v 0.7 1.6 -0.6
v -0.7 0.2 0.3
v -0.3 0.2 0.3
v 0.3 0.2 0.3
v 0.7 0.2 0.3
v -0.7 0.2 -0.1
v -0.3 0.2 -0.1
v 0.3 0.2 -0.1
v 0.7 0.2 -0.1
v -0.9 1.2 -2.98023e-08
v -0.7 1.2 -2.98023e-08
v 0.7 1.2 -2.98023e-08
v 0.9 1.2 -2.98023e-08
v -1 1.2 -0.1
v -0.9 1.2 -0.1
v -0.7 1.2 -0.1
v 0.7 1.2 -0.1
v 0.9 1.2 -0.1
v 1 1.2 -0.1
v -1 1.2 -0.4
v -0.9 1.2 -0.4
v -0.7 1.2 -0.4
v 0.7 1.2 -0.4
v 0.9 1.2 -0.4
v 1 1.2 -0.4
v -0.9 1.2 -0.5
v -0.7 1.2 -0.5
v 0.7 1.2 -0.5
v 0.9 1.2 -0.5
v -0.4 1.2 -0.6
v 0.4 1.2 -0.6
v -0.4 1.2 -0.7
v 0.4 1.2 -0.7
v -0.5 1.3 -0.5
v 0.5 1.3 -0.5
v -0.5 1.3 -0.6
v 0.5 1.3 -0.6
v -0.6 1.4 -0.4
v 0.6 1.4 -0.4
v -0.6 1.4 -0.5
v 0.6 1.4 -0.5
v -0.4 1.7 -2.98023e-08
v -0.1 1.7 -2.98023e-08
v 0.1 1.7 -2.98023e-08
v 0.4 1.7 -2.98023e-08
v -0.9 1.7 -0.1
v -0.8 1.7 -0.1
v -0.4 1.7 -0.1
v -0.1 1.7 -0.1
v 0.1 1.7 -0.1
v 0.4 1.7 -0.1
v 0.8 1.7 -0.1
v 0.9 1.7 -0.1
v -0.9 1.7 -0.2
v -0.8 1.7 -0.2
v 0.8 1.7 -0.2
v 0.9 1.7 -0.2
v -0.9 1.7 -0.3
v -0.8 1.7 -0.3
v 0.8 1.7 -0.3
v 0.9 1.7 -0.3
v -0.9 1.7 -0.4
v -0.8 1.7 -0.4
v -0.7 1.7 -0.4
v 0.7 1.7 -0.4
v 0.8 1.7 -0.4
v 0.9 1.7 -0.4
v -0.8 1.7 -0.5
v -0.7 1.7 -0.5
v -0.6 1.7 -0.5
v 0.6 1.7 -0.5
v 0.7 1.7 -0.5
v 0.8 1.7 -0.5
v -0.7 1.7 -0.6
v -0.6 1.7 -0.6
v 0.6 1.7 -0.6
v 0.7 1.7 -0.6
v -0.8 1.8 -0.1
v -0.7 1.8 -0.1
v 0.7 1.8 -0.1
v 0.8 1.8 -0.1
v -0.9 1.8 -0.2
v -0.8 1.8 -0.2
v -0.7 1.8 -0.2
v 0.7 1.8 -0.2
v 0.8 1.8 -0.2
v 0.9 1.8 -0.2
v -0.9 1.8 -0.3
v -0.8 1.8 -0.3
v -0.7 1.8 -0.3
v 0.7 1.8 -0.3
v 0.8 1.8 -0.3
v 0.9 1.8 -0.3
v -0.8 1.8 -0.4
v -0.7 1.8 -0.4
v -0.6 1.8 -0.4
v 0.6 1.8 -0.4
v 0.7 1.8 -0.4
v 0.8 1.8 -0.4
v -0.7 1.8 -0.5
v -0.6 1.8 -0.5
v 0.6 1.8 -0.5
v 0.7 1.8 -0.5
v -0.6 1.8 -0.6
v 0.6 1.8 -0.6
v -0.7 1.9 -0.1
v -0.6 1.9 -0.1
v -0.8 1.9 -0.2
v -0.7 1.9 -0.2
v -0.6 1.9 -0.2
v 0.7 1.9 -0.2
v 0.8 1.9 -0.2
v -0.8 1.9 -0.3
v -0.7 1.9 -0.3
v -0.6 1.9 -0.3
v 0.7 1.9 -0.3
v 0.8 1.9 -0.3
v -0.7 1.9 -0.4
v -0.6 1.9 -0.4
v 0.6 1.9 -0.4
v -0.6 1.9 -0.5
v 0.6 1.9 -0.5
v -0.6 2 -0.1
v 0.7 2 -0.1
v -0.7 2 -0.2
v -0.6 2 -0.2
v -0.7 2 -0.3
v -0.6 2 -0.3
v -0.6 2 -0.4
v 0.7 2 -0.4

# faces
f 3/1/1 2/1/1 1/1/1
f 4/1/1 2/1/1 3/1/1
f 8/1/1 6/1/1 5/1/1
f 9/1/1 6/1/1 8/1/1
f 11/1/1 8/1/1 7/1/1
f 12/1/1 8/1/1 11/1/1
f 13/1/1 10/1/1 9/1/1
f 14/1/1 10/1/1 13/1/1
f 15/1/1 13/1/1 12/1/1
f 16/1/1 13/1/1 15/1/1
f 17/2/1 16/2/1 15/2/1
f 18/2/1 16/2/1 17/2/1
f 19/2/1 16/2/1 18/2/1
f 20/2/1 16/2/1 19/2/1
f 21/2/1 19/2/1 18/2/1
f 22/2/1 19/2/1 21/2/1
f 28/2/1 24/2/1 23/2/1
f 29/2/1 24/2/1 28/2/1
f 30/2/1 26/2/1 25/2/1
f 31/2/1 26/2/1 30/2/1
f 32/2/1 28/2/1 27/2/1
f 33/2/1 28/2/1 32/2/1
f 34/2/1 32/2/1 31/2/1
f 35/2/1 32/2/1 34/2/1
f 38/1/1 37/1/1 36/1/1
f 39/1/1 37/1/1 38/1/1
f 40/1/1 37/1/1 39/1/1
f 41/1/1 37/1/1 40/1/1
f 42/2/1 41/2/1 40/2/1
f 43/2/1 41/2/1 42/2/1
f 47/2/1 45/2/1 44/2/1
f 48/2/1 45/2/1 47/2/1
f 52/2/1 47/2/1 46/2/1
f 53/2/1 47/2/1 52/2/1
f 54/2/1 50/2/1 49/2/1
f 55/2/1 50/2/1 54/2/1
f 56/2/1 52/2/1 51/2/1
f 57/2/1 52/2/1 56/2/1
f 58/2/1 56/2/1 55/2/1
f 59/2/1 56/2/1 58/2/1
f 62/2/1 61/2/1 60/2/1
f 63/2/1 61/2/1 62/2/1
f 67/2/1 65/2/1 64/2/1
f 68/2/1 65/2/1 67/2/1
f 72/2/1 67/2/1 66/2/1
f 73/2/1 67/2/1 72/2/1
f 74/2/1 70/2/1 69/2/1
f 75/2/1 70/2/1 74/2/1
f 76/2/1 72/2/1 71/2/1
f 77/2/1 72/2/1 76/2/1
f 80/2/1 79/2/1 78/2/1
f 81/2/1 79/2/1 80/2/1
f 84/2/1 83/2/1 82/2/1
f 85/2/1 83/2/1 84/2/1
f 88/3/1 87/3/1 86/3/1
f 89/3/1 87/3/1 88/3/1
f 92/3/1 91/3/1 90/3/1
f 93/3/1 91/3/1 92/3/1
f 96/1/1 95/1/1 94/1/1
f 97/1/1 95/1/1 96/1/1
f 98/1/1 95/1/1 97/1/1
f 99/1/1 95/1/1 98/1/1
f 104/1/1 101/1/1 100/1/1
f 105/1/1 101/1/1 104/1/1
f 106/1/1 103/1/1 102/1/1
f 107/1/1 103/1/1 106/1/1
f 108/1/2 109/1/2 112/1/2
f 112/1/2 109/1/2 113/1/2
f 110/1/2 111/1/2 114/1/2
f 114/1/2 111/1/2 115/1/2
f 116/1/2 117/1/2 118/1/2
f 118/1/2 117/1/2 119/1/2
f 119/1/2 117/1/2 120/1/2
f 120/1/2 117/1/2 121/1/2
f 122/3/2 123/3/2 124/3/2
f 124/3/2 123/3/2 125/3/2
f 126/2/2 127/2/2 128/2/2
f 128/2/2 127/2/2 129/2/2
f 130/3/2 131/3/2 132/3/2
f 132/3/2 131/3/2 133/3/2
f 134/2/2 135/2/2 136/2/2
f 136/2/2 135/2/2 137/2/2
f 138/2/2 139/2/2 140/2/2
f 140/2/2 139/2/2 141/2/2
f 142/2/2 143/2/2 145/2/2
f 145/2/2 143/2/2 146/2/2
f 144/2/2 145/2/2 147/2/2
f 147/2/2 145/2/2 148/2/2
f 149/1/2 150/1/2 151/1/2
f 151/1/2 150/1/2 152/1/2
f 152/1/2 150/1/2 153/1/2
f 153/1/2 150/1/2 154/1/2
f 153/2/2 154/2/2 155/2/2
f 155/2/2 154/2/2 156/2/2
f 157/2/2 158/2/2 160/2/2
f 160/2/2 158/2/2 161/2/2
f 159/2/2 160/2/2 165/2/2
f 165/2/2 160/2/2 166/2/2
f 162/2/2 163/2/2 167/2/2
f 164/2/2 165/2/2 168/2/2
f 162/2/2 167/2/2 169/2/2
f 167/2/2 168/2/2 169/2/2
f 168/2/2 165/2/2 170/2/2
f 169/2/2 168/2/2 170/2/2
f 171/2/2 172/2/2 176/2/2
f 176/2/2 172/2/2 177/2/2
f 173/2/2 174/2/2 178/2/2
f 178/2/2 174/2/2 179/2/2
f 175/2/2 176/2/2 180/2/2
f 180/2/2 176/2/2 181/2/2
f 179/2/2 180/2/2 182/2/2
f 182/2/2 180/2/2 183/2/2
f 184/1/2 185/1/2 187/1/2
f 187/1/2 185/1/2 188/1/2
f 186/1/2 187/1/2 190/1/2
f 190/1/2 187/1/2 191/1/2
f 188/1/2 189/1/2 192/1/2
f 192/1/2 189/1/2 193/1/2
f 191/1/2 192/1/2 194/1/2
f 194/1/2 192/1/2 195/1/2
f 194/2/2 195/2/2 196/2/2
f 196/2/2 195/2/2 197/2/2
f 197/2/2 195/2/2 198/2/2
f 198/2/2 195/2/2 199/2/2
f 197/2/2 198/2/2 200/2/2
f 200/2/2 198/2/2 201/2/2
f 202/1/2 203/1/2 204/1/2
f 204/1/2 203/1/2 205/1/2
f 208/1/3 207/1/3 206/1/3
f 209/1/3 207/1/3 208/1/3
f 212/1/3 211/1/3 210/1/3
f 213/1/3 211/1/3 212/1/3
f 216/1/3 215/1/3 214/1/3
f 217/1/3 215/1/3 216/1/3
f 220/3/3 219/3/3 218/3/3
f 221/3/3 219/3/3 220/3/3
f 224/3/3 223/3/3 222/3/3
f 225/3/3 223/3/3 224/3/3
f 228/1/3 227/1/3 226/1/3
f 229/1/3 227/1/3 228/1/3
f 233/1/3 231/1/3 230/1/3
f 234/1/3 231/1/3 233/1/3
f 237/2/3 236/2/3 235/2/3
f 241/1/3 233/1/3 232/1/3
f 242/1/3 233/1/3 241/1/3
f 243/1/3 235/1/3 234/1/3
f 244/2/3 237/2/3 235/2/3
f 244/2/3 238/2/3 237/2/3
f 244/1/3 235/1/3 243/1/3
f 245/2/3 238/2/3 244/2/3
f 247/2/3 242/2/3 241/2/3
f 247/2/3 246/2/3 245/2/3
f 247/2/3 245/2/3 244/2/3
f 247/2/3 244/2/3 243/2/3
f 247/2/3 241/2/3 240/2/3
f 247/2/3 243/2/3 242/2/3
f 249/2/3 247/2/3 240/2/3
f 249/2/3 248/2/3 247/2/3
f 250/2/3 248/2/3 249/2/3
f 251/1/3 240/1/3 239/1/3
f 252/2/3 249/2/3 240/2/3
f 252/1/3 240/1/3 251/1/3
f 253/2/3 249/2/3 252/2/3
f 254/2/3 248/2/3 250/2/3
f 255/2/3 253/2/3 252/2/3
f 255/2/3 254/2/3 253/2/3
f 256/2/3 248/2/3 254/2/3
f 256/2/3 254/2/3 255/2/3
f 258/2/3 255/2/3 252/2/3
f 259/2/3 255/2/3 258/2/3
f 260/2/3 248/2/3 256/2/3
f 261/1/3 258/1/3 257/1/3
f 262/2/3 259/2/3 258/2/3
f 262/1/3 258/1/3 261/1/3
f 262/2/3 260/2/3 259/2/3
f 263/2/3 260/2/3 262/2/3
f 264/2/3 260/2/3 263/2/3
f 265/2/3 260/2/3 264/2/3
f 266/2/3 260/2/3 265/2/3
f 267/2/3 248/2/3 260/2/3
f 267/2/3 260/2/3 266/2/3
f 268/2/3 248/2/3 267/2/3
f 269/2/3 267/2/3 266/2/3
f 270/2/3 267/2/3 269/2/3
f 271/1/3 264/1/3 263/1/3
f 272/1/3 264/1/3 271/1/3
f 273/1/3 266/1/3 265/1/3
f 274/2/3 269/2/3 266/2/3
f 274/1/3 266/1/3 273/1/3
f 275/2/3 269/2/3 274/2/3
f 276/1/3 273/1/3 272/1/3
f 277/1/3 273/1/3 276/1/3
f 280/2/3 279/2/3 278/2/3
f 281/2/3 279/2/3 280/2/3
f 283/2/3 282/2/3 281/2/3
f 284/2/3 282/2/3 283/2/3
f 286/2/3 285/2/3 284/2/3
f 287/2/3 285/2/3 286/2/3
f 291/2/3 289/2/3 288/2/3
f 292/2/3 289/2/3 291/2/3
f 293/2/3 291/2/3 290/2/3
f 294/2/3 291/2/3 293/2/3
f 295/2/4 296/2/4 297/2/4
f 297/2/4 296/2/4 298/2/4
f 298/2/4 299/2/4 300/2/4
f 300/2/4 299/2/4 301/2/4
f 301/2/4 302/2/4 303/2/4
f 303/2/4 302/2/4 304/2/4
f 305/2/4 306/2/4 308/2/4
f 308/2/4 306/2/4 309/2/4
f 307/2/4 308/2/4 310/2/4
f 310/2/4 308/2/4 311/2/4
f 312/1/4 313/1/4 315/1/4
f 315/1/4 313/1/4 316/1/4
f 317/2/4 318/2/4 319/2/4
f 316/1/4 317/1/4 319/1/4
f 319/2/4 318/2/4 320/2/4
f 314/1/4 315/1/4 324/1/4
f 324/1/4 315/1/4 325/1/4
f 316/1/4 319/1/4 326/1/4
f 326/1/4 319/1/4 327/1/4
f 320/2/4 321/2/4 328/2/4
f 328/2/4 321/2/4 329/2/4
f 324/2/4 325/2/4 331/2/4
f 326/2/4 327/2/4 331/2/4
f 323/2/4 324/2/4 331/2/4
f 325/2/4 326/2/4 331/2/4
f 331/2/4 327/2/4 332/2/4
f 329/2/4 330/2/4 333/2/4
f 333/2/4 330/2/4 334/2/4
f 322/1/4 323/1/4 336/1/4
f 323/2/4 331/2/4 337/2/4
f 336/1/4 323/1/4 337/1/4
f 337/2/4 331/2/4 339/2/4
f 339/2/4 331/2/4 340/2/4
f 332/2/4 327/2/4 341/2/4
f 334/2/4 335/2/4 343/2/4
f 338/1/4 339/1/4 344/1/4
f 340/2/4 341/2/4 345/2/4
f 344/1/4 339/1/4 345/1/4
f 339/2/4 340/2/4 345/2/4
f 345/2/4 341/2/4 346/2/4
f 346/2/4 341/2/4 347/2/4
f 347/2/4 341/2/4 348/2/4
f 341/2/4 327/2/4 349/2/4
f 348/2/4 341/2/4 349/2/4
f 342/2/4 343/2/4 351/2/4
f 343/2/4 335/2/4 352/2/4
f 351/2/4 343/2/4 352/2/4
f 348/1/4 349/1/4 353/1/4
f 350/2/4 351/2/4 354/2/4
f 354/2/4 351/2/4 355/2/4
f 346/1/4 347/1/4 356/1/4
f 356/1/4 347/1/4 357/1/4
f 348/1/4 353/1/4 358/1/4
f 353/2/4 354/2/4 359/2/4
f 358/1/4 353/1/4 359/1/4
f 359/2/4 354/2/4 360/2/4
f 357/1/4 358/1/4 361/1/4
f 361/1/4 358/1/4 362/1/4
f 363/1/4 364/1/4 367/1/4
f 367/1/4 364/1/4 368/1/4
f 365/2/4 366/2/4 369/2/4
f 369/2/4 366/2/4 370/2/4
f 370/2/4 371/2/4 374/2/4
f 374/2/4 371/2/4 375/2/4
f 372/2/4 373/2/4 377/2/4
f 377/2/4 373/2/4 378/2/4
f 372/2/4 377/2/4 379/2/4
f 378/2/4 373/2/4 380/2/4
f 372/2/4 379/2/4 381/2/4
f 379/2/4 380/2/4 381/2/4
f 380/2/4 373/2/4 382/2/4
f 381/2/4 380/2/4 382/2/4
f 375/2/4 376/2/4 384/2/4
f 384/2/4 376/2/4 385/2/4
f 365/2/4 369/2/4 388/2/4
f 383/2/4 384/2/4 389/2/4
f 389/2/4 384/2/4 390/2/4
f 365/2/4 388/2/4 391/2/4
f 388/2/4 389/2/4 391/2/4
f 391/2/4 389/2/4 392/2/4
f 386/1/4 387/1/4 393/1/4
f 393/1/4 387/1/4 394/1/4
f 395/2/4 396/2/4 397/2/4
f 399/2/4 400/2/4 401/2/4
f 401/2/4 400/2/4 402/2/4
f 399/2/4 401/2/4 403/2/4
f 402/2/4 400/2/4 404/2/4
f 399/2/4 403/2/4 405/2/4
f 403/2/4 404/2/4 405/2/4
f 404/2/4 400/2/4 406/2/4
f 405/2/4 404/2/4 406/2/4
f 395/2/4 397/2/4 407/2/4
f 397/2/4 398/2/4 407/2/4
f 407/2/4 398/2/4 408/2/4
f 395/2/4 407/2/4 409/2/4
f 409/2/4 407/2/4 410/2/4
f 411/2/4 412/2/4 413/2/4
f 413/2/4 412/2/4 414/2/4
f 419/1/5 416/1/5 415/1/5
f 420/1/5 416/1/5 419/1/5
f 421/1/5 418/1/5 417/1/5
f 422/1/5 418/1/5 421/1/5
f 425/2/5 424/2/5 423/2/5
f 426/2/5 424/2/5 425/2/5
f 431/1/5 428/1/5 427/1/5
f 432/1/5 428/1/5 431/1/5
f 435/1/5 430/1/5 429/1/5
f 436/1/5 430/1/5 435/1/5
f 437/2/5 434/2/5 433/2/5
f 438/2/5 434/2/5 437/2/5
f 444/1/5 440/1/5 439/1/5
f 445/1/5 440/1/5 444/1/5
f 446/1/5 442/1/5 441/1/5
f 447/1/5 442/1/5 446/1/5
f 449/1/5 444/1/5 443/1/5
f 450/1/5 444/1/5 449/1/5
f 453/1/5 448/1/5 447/1/5
f 454/1/5 448/1/5 453/1/5
f 455/1/5 451/1/5 450/1/5
f 456/1/5 451/1/5 455/1/5
f 459/1/5 453/1/5 452/1/5
f 460/1/5 453/1/5 459/1/5
f 461/2/5 458/2/5 457/2/5
f 462/2/5 458/2/5 461/2/5
f 465/2/5 464/2/5 463/2/5
f 466/2/5 464/2/5 465/2/5
f 471/3/5 468/3/5 467/3/5
f 472/3/5 468/3/5 471/3/5
f 473/3/5 470/3/5 469/3/5
f 474/3/5 470/3/5 473/3/5
f 479/2/5 476/2/5 475/2/5
f 479/2/5 478/2/5 477/2/5
f 479/2/5 477/2/5 476/2/5
f 480/2/5 478/2/5 479/2/5
f 483/2/5 482/2/5 481/2/5
f 484/2/5 482/2/5 483/2/5
f 485/1/6 486/1/6 489/1/6
f 489/1/6 486/1/6 490/1/6
f 487/1/6 488/1/6 491/1/6
f 491/1/6 488/1/6 492/1/6
f 493/1/6 494/1/6 498/1/6
f 498/1/6 494/1/6 499/1/6
f 495/1/6 496/1/6 500/1/6
f 500/1/6 496/1/6 501/1/6
f 497/1/6 498/1/6 503/1/6
f 503/1/6 498/1/6 504/1/6
f 501/1/6 502/1/6 507/1/6
f 507/1/6 502/1/6 508/1/6
f 504/1/6 505/1/6 509/1/6
f 509/1/6 505/1/6 510/1/6
f 506/1/6 507/1/6 511/1/6
f 511/1/6 507/1/6 512/1/6
f 513/2/6 514/2/6 515/2/6
f 515/2/6 514/2/6 516/2/6
f 517/2/6 518/2/6 519/2/6
f 519/2/6 518/2/6 520/2/6
f 521/2/6 522/2/6 523/2/6
f 523/2/6 522/2/6 524/2/6
f 525/3/6 526/3/6 531/3/6
f 531/3/6 526/3/6 532/3/6
f 527/3/6 528/3/6 533/3/6
f 533/3/6 528/3/6 534/3/6
f 529/2/6 530/2/6 537/2/6
f 537/2/6 530/2/6 538/2/6
f 535/2/6 536/2/6 539/2/6
f 539/2/6 536/2/6 540/2/6
f 541/2/6 542/2/6 545/2/6
f 545/2/6 542/2/6 546/2/6
f 543/2/6 544/2/6 549/2/6
f 549/2/6 544/2/6 550/2/6
f 546/2/6 547/2/6 551/2/6
f 551/2/6 547/2/6 552/2/6
f 548/2/6 549/2/6 555/2/6
f 555/2/6 549/2/6 556/2/6
f 552/2/6 553/2/6 557/2/6
f 557/2/6 553/2/6 558/2/6
f 554/2/6 555/2/6 559/2/6
f 559/2/6 555/2/6 560/2/6
f 561/2/6 562/2/6 566/2/6
f 566/2/6 562/2/6 567/2/6
f 563/2/6 564/2/6 568/2/6
f 568/2/6 564/2/6 569/2/6
f 565/2/6 566/2/6 571/2/6
f 571/2/6 566/2/6 572/2/6
f 569/2/6 570/2/6 575/2/6
f 575/2/6 570/2/6 576/2/6
f 572/2/6 573/2/6 577/2/6
f 577/2/6 573/2/6 578/2/6
f 574/2/6 575/2/6 581/2/6
f 581/2/6 575/2/6 582/2/6
f 578/2/6 579/2/6 583/2/6
f 583/2/6 579/2/6 584/2/6
f 580/2/6 581/2/6 585/2/6
f 585/2/6 581/2/6 586/2/6
f 584/2/6 585/2/6 587/2/6
f 587/2/6 585/2/6 588/2/6
f 589/2/6 590/2/6 592/2/6
f 592/2/6 590/2/6 593/2/6
f 591/2/6 592/2/6 596/2/6
f 596/2/6 592/2/6 597/2/6
f 594/2/6 595/2/6 599/2/6
f 599/2/6 595/2/6 600/2/6
f 597/2/6 598/2/6 601/2/6
f 601/2/6 598/2/6 602/2/6
f 602/2/6 603/2/6 604/2/6
f 604/2/6 603/2/6 605/2/6
f 606/2/6 607/2/6 609/2/6
f 608/2/6 609/2/6 610/2/6
f 609/2/6 607/2/6 611/2/6
f 610/2/6 609/2/6 611/2/6
f 611/2/6 607/2/6 612/2/6
f 612/2/6 607/2/6 613/2/6
