# MagicaVoxel @ Ephtracy

# group
o 

# material
mtllib Player.mtl
usemtl palette

# normals
vn -1 0 0
vn 1 0 0
vn 0 0 1
vn 0 0 -1
vn 0 -1 0
vn 0 1 0

# texcoords
vt 0.0332031 0.5
vt 0.162109 0.5
vt 0.705078 0.5
vt 0.841797 0.5
vt 0.876953 0.5

# verts
v -1 1 -0.1
v -1 1 -0.4
v -1 1.2 -0.1
v -1 1.2 -0.4
v -0.9 0.9 -0.1
v -0.9 0.9 -0.4
v -0.9 1 -2.98023e-08
v -0.9 1 -0.1
v -0.9 1 -0.4
v -0.9 1 -0.5
v -0.9 1.2 -2.98023e-08
v -0.9 1.2 -0.1
v -0.9 1.2 -0.4
v -0.9 1.2 -0.5
v -0.9 1.5 -0.1
v -0.9 1.5 -0.4
v -0.9 1.7 -0.1
v -0.9 1.7 -0.2
v -0.9 1.7 -0.3
v -0.9 1.7 -0.4
v -0.9 1.8 -0.2
v -0.9 1.8 -0.3
v -0.8 1.5 -0.4
v -0.8 1.5 -0.5
v -0.8 1.7 -0.1
v -0.8 1.7 -0.2
v -0.8 1.7 -0.3
v -0.8 1.7 -0.4
v -0.8 1.7 -0.5
v -0.8 1.8 -0.1
v -0.8 1.8 -0.2
v -0.8 1.8 -0.3
v -0.8 1.8 -0.4
v -0.8 1.9 -0.2
v -0.8 1.9 -0.3
v -0.7 0 0.3
v -0.7 0 -0.4
v -0.7 0.1 -0.1
v -0.7 0.1 -0.4
v -0.7 0.2 0.1
v -0.7 0.2 -0.1
v -0.7 0.3 0.3
v -0.7 0.3 0.1
v -0.7 0.8 -0.1
v -0.7 0.8 -0.4
v -0.7 0.9 -0.1
v -0.7 0.9 -0.4
v -0.7 1.6 -0.5
v -0.7 1.6 -0.6
v -0.7 1.7 -0.4
v -0.7 1.7 -0.5
v -0.7 1.7 -0.6
v -0.7 1.8 -0.1
v -0.7 1.8 -0.2
v -0.7 1.8 -0.3
v -0.7 1.8 -0.4
v -0.7 1.8 -0.5
v -0.7 1.9 -0.1
v -0.7 1.9 -0.2
v -0.7 1.9 -0.3
v -0.7 1.9 -0.4
v -0.7 2 -0.2
v -0.7 2 -0.3
v -0.6 0.9 -0.4
v -0.6 0.9 -0.5
v -0.6 1.4 -0.4
v -0.6 1.4 -0.5
v -0.6 1.7 -0.5
v -0.6 1.7 -0.6
v -0.6 1.8 -0.4
v -0.6 1.8 -0.5
v -0.6 1.8 -0.6
v -0.6 1.9 -0.1
v -0.6 1.9 -0.2
v -0.6 1.9 -0.3
v -0.6 1.9 -0.4
v -0.6 1.9 -0.5
v -0.6 2 -0.1
v -0.6 2 -0.2
v -0.6 2 -0.3
v -0.6 2 -0.4
v -0.5 1 -0.5
v -0.5 1 -0.6
v -0.5 1.3 -0.5
v -0.5 1.3 -0.6
v -0.4 1.1 -0.6
v -0.4 1.1 -0.7
v -0.4 1.2 -0.6
v -0.4 1.2 -0.7
v -0.4 1.7 -2.98023e-08
v -0.4 1.7 -0.1
v -0.4 1.8 -2.98023e-08
v -0.4 1.8 -0.1
v -0.3 1.3 -2.98023e-08
v -0.3 1.3 -0.1
v -0.3 1.5 -2.98023e-08
v -0.3 1.5 -0.1
v -0.2 1.2 -2.98023e-08
v -0.2 1.2 -0.1
v -0.2 1.3 -2.98023e-08
v -0.2 1.3 -0.1
v -0.2 1.5 -2.98023e-08
v -0.2 1.5 -0.1
v -0.2 1.6 -2.98023e-08
v -0.2 1.6 -0.1
v 0.3 0 0.3
v 0.3 0 -0.4
v 0.3 0.1 -0.1
v 0.3 0.1 -0.4
v 0.3 0.2 0.1
v 0.3 0.2 -0.1
v 0.3 0.3 0.3
v 0.3 0.3 0.1
v 0.3 0.8 -0.1
v 0.3 0.8 -0.4
v 0.3 1.7 -2.98023e-08
v 0.3 1.7 -0.1
v 0.3 1.8 -2.98023e-08
v 0.3 1.8 -0.1
v 0.7 1 -2.98023e-08
v 0.7 1 -0.1
v 0.7 1 -0.4
v 0.7 1 -0.5
v 0.7 1.2 -2.98023e-08
v 0.7 1.2 -0.1
v 0.7 1.2 -0.4
v 0.7 1.2 -0.5
v -0.7 1 -2.98023e-08
v -0.7 1 -0.1
v -0.7 1 -0.4
v -0.7 1 -0.5
v -0.7 1.2 -2.98023e-08
v -0.7 1.2 -0.1
v -0.7 1.2 -0.4
v -0.7 1.2 -0.5
v -0.3 0 0.3
v -0.3 0 -0.4
v -0.3 0.1 -0.1
v -0.3 0.1 -0.4
v -0.3 0.2 0.1
v -0.3 0.2 -0.1
v -0.3 0.3 0.3
v -0.3 0.3 0.1
v -0.3 0.8 -0.1
v -0.3 0.8 -0.4
v -0.3 1.7 -2.98023e-08
v -0.3 1.7 -0.1
v -0.3 1.8 -2.98023e-08
v -0.3 1.8 -0.1
v 0.2 1.2 -2.98023e-08
v 0.2 1.2 -0.1
v 0.2 1.3 -2.98023e-08
v 0.2 1.3 -0.1
v 0.2 1.5 -2.98023e-08
v 0.2 1.5 -0.1
v 0.2 1.6 -2.98023e-08
v 0.2 1.6 -0.1
v 0.3 1.3 -2.98023e-08
v 0.3 1.3 -0.1
v 0.3 1.5 -2.98023e-08
v 0.3 1.5 -0.1
v 0.4 1.1 -0.6
v 0.4 1.1 -0.7
v 0.4 1.2 -0.6
v 0.4 1.2 -0.7
v 0.4 1.7 -2.98023e-08
v 0.4 1.7 -0.1
v 0.4 1.8 -2.98023e-08
v 0.4 1.8 -0.1
v 0.5 1 -0.5
v 0.5 1 -0.6
v 0.5 1.3 -0.5
v 0.5 1.3 -0.6
v 0.6 0.9 -0.4
v 0.6 0.9 -0.5
v 0.6 1.4 -0.4
v 0.6 1.4 -0.5
v 0.6 1.7 -0.5
v 0.6 1.7 -0.6
v 0.6 1.8 -0.4
v 0.6 1.8 -0.5
v 0.6 1.8 -0.6
v 0.6 1.9 -0.4
v 0.6 1.9 -0.5
v 0.7 0 0.3
v 0.7 0 -0.4
v 0.7 0.1 -0.1
v 0.7 0.1 -0.4
v 0.7 0.2 0.1
v 0.7 0.2 -0.1
v 0.7 0.3 0.3
v 0.7 0.3 0.1
v 0.7 0.8 -0.1
v 0.7 0.8 -0.4
v 0.7 0.9 -0.1
v 0.7 0.9 -0.4
v 0.7 1.6 -0.5
v 0.7 1.6 -0.6
v 0.7 1.7 -0.4
v 0.7 1.7 -0.5
v 0.7 1.7 -0.6
v 0.7 1.8 -0.1
v 0.7 1.8 -0.2
v 0.7 1.8 -0.3
v 0.7 1.8 -0.4
v 0.7 1.8 -0.5
v 0.7 1.9 -0.2
v 0.7 1.9 -0.3
v 0.7 2 -0.1
v 0.7 2 -0.4
v 0.8 1.5 -0.4
v 0.8 1.5 -0.5
v 0.8 1.7 -0.1
v 0.8 1.7 -0.2
v 0.8 1.7 -0.3
v 0.8 1.7 -0.4
v 0.8 1.7 -0.5
v 0.8 1.8 -0.1
v 0.8 1.8 -0.2
v 0.8 1.8 -0.3
v 0.8 1.8 -0.4
v 0.8 1.9 -0.2
v 0.8 1.9 -0.3
v 0.9 0.9 -0.1
v 0.9 0.9 -0.4
v 0.9 1 -2.98023e-08
v 0.9 1 -0.1
v 0.9 1 -0.4
v 0.9 1 -0.5
v 0.9 1.2 -2.98023e-08
v 0.9 1.2 -0.1
v 0.9 1.2 -0.4
v 0.9 1.2 -0.5
v 0.9 1.5 -0.1
v 0.9 1.5 -0.4
v 0.9 1.7 -0.1
v 0.9 1.7 -0.2
v 0.9 1.7 -0.3
v 0.9 1.7 -0.4
v 0.9 1.8 -0.2
v 0.9 1.8 -0.3
v 1 1 -0.1
v 1 1 -0.4
v 1 1.2 -0.1
v 1 1.2 -0.4
v -0.7 0 0.3
v -0.7 0.3 0.3
v -0.3 0 0.3
v -0.3 0.3 0.3
v 0.3 0 0.3
v 0.3 0.3 0.3
v 0.7 0 0.3
v 0.7 0.3 0.3
v -0.9 1 -2.98023e-08
v -0.9 1.2 -2.98023e-08
v -0.7 1 -2.98023e-08
v -0.7 1.2 -2.98023e-08
v -0.4 1.7 -2.98023e-08
v -0.4 1.8 -2.98023e-08
v -0.3 1.3 -2.98023e-08
v -0.3 1.5 -2.98023e-08
v -0.3 1.7 -2.98023e-08
v -0.3 1.8 -2.98023e-08
v -0.2 1.2 -2.98023e-08
v -0.2 1.3 -2.98023e-08
v -0.2 1.5 -2.98023e-08
v -0.2 1.6 -2.98023e-08
v 0.2 1.2 -2.98023e-08
v 0.2 1.3 -2.98023e-08
v 0.2 1.5 -2.98023e-08
v 0.2 1.6 -2.98023e-08
v 0.3 1.3 -2.98023e-08
v 0.3 1.5 -2.98023e-08
v 0.3 1.7 -2.98023e-08
v 0.3 1.8 -2.98023e-08
v 0.4 1.7 -2.98023e-08
v 0.4 1.8 -2.98023e-08
v 0.7 1 -2.98023e-08
v 0.7 1.2 -2.98023e-08
v 0.9 1 -2.98023e-08
v 0.9 1.2 -2.98023e-08
v -1 1 -0.1
v -1 1.2 -0.1
v -0.9 0.9 -0.1
v -0.9 1 -0.1
v -0.9 1.2 -0.1
v -0.9 1.5 -0.1
v -0.9 1.7 -0.1
v -0.8 1.7 -0.1
v -0.8 1.8 -0.1
v -0.7 0.2 -0.1
v -0.7 0.8 -0.1
v -0.7 0.9 -0.1
v -0.7 1 -0.1
v -0.7 1.2 -0.1
v -0.7 1.5 -0.1
v -0.7 1.8 -0.1
v -0.7 1.9 -0.1
v -0.6 1.9 -0.1
v -0.6 2 -0.1
v -0.4 1.7 -0.1
v -0.4 1.8 -0.1
v -0.3 0.2 -0.1
v -0.3 0.8 -0.1
v -0.3 1.3 -0.1
v -0.3 1.5 -0.1
v -0.3 1.7 -0.1
v -0.3 1.8 -0.1
v -0.2 1.2 -0.1
v -0.2 1.3 -0.1
v -0.2 1.5 -0.1
v -0.2 1.6 -0.1
v 0.2 1.2 -0.1
v 0.2 1.3 -0.1
v 0.2 1.5 -0.1
v 0.2 1.6 -0.1
v 0.3 0.2 -0.1
v 0.3 0.8 -0.1
v 0.3 1.3 -0.1
v 0.3 1.5 -0.1
v 0.3 1.7 -0.1
v 0.3 1.8 -0.1
v 0.4 1.7 -0.1
v 0.4 1.8 -0.1
v 0.7 0.2 -0.1
v 0.7 0.8 -0.1
v 0.7 0.9 -0.1
v 0.7 1 -0.1
v 0.7 1.2 -0.1
v 0.7 1.5 -0.1
v 0.7 1.8 -0.1
v 0.7 2 -0.1
v 0.8 1.7 -0.1
v 0.8 1.8 -0.1
v 0.9 0.9 -0.1
v 0.9 1 -0.1
v 0.9 1.2 -0.1
v 0.9 1.5 -0.1
v 0.9 1.7 -0.1
v 1 1 -0.1
v 1 1.2 -0.1
v -0.9 1.7 -0.2
v -0.9 1.8 -0.2
v -0.8 1.7 -0.2
v -0.8 1.8 -0.2
v -0.8 1.9 -0.2
v -0.7 1.8 -0.2
v -0.7 1.9 -0.2
v -0.7 2 -0.2
v -0.6 1.9 -0.2
v -0.6 2 -0.2
v 0.7 1.8 -0.2
v 0.7 1.9 -0.2
v 0.8 1.7 -0.2
v 0.8 1.8 -0.2
v 0.8 1.9 -0.2
v 0.9 1.7 -0.2
v 0.9 1.8 -0.2
v -0.7 0.2 0.1
v -0.7 0.3 0.1
v -0.3 0.2 0.1
v -0.3 0.3 0.1
v 0.3 0.2 0.1
v 0.3 0.3 0.1
v 0.7 0.2 0.1
v 0.7 0.3 0.1
v -0.9 1.7 -0.3
v -0.9 1.8 -0.3
v -0.8 1.7 -0.3
v -0.8 1.8 -0.3
v -0.8 1.9 -0.3
v -0.7 1.8 -0.3
v -0.7 1.9 -0.3
v -0.7 2 -0.3
v -0.6 1.9 -0.3
v -0.6 2 -0.3
v 0.7 1.8 -0.3
v 0.7 1.9 -0.3
v 0.8 1.7 -0.3
v 0.8 1.8 -0.3
v 0.8 1.9 -0.3
v 0.9 1.7 -0.3
v 0.9 1.8 -0.3
v -1 1 -0.4
v -1 1.2 -0.4
v -0.9 0.9 -0.4
v -0.9 1 -0.4
v -0.9 1.2 -0.4
v -0.9 1.5 -0.4
v -0.9 1.7 -0.4
v -0.8 1.5 -0.4
v -0.8 1.7 -0.4
v -0.8 1.8 -0.4
v -0.7 0 -0.4
v -0.7 0.1 -0.4
v -0.7 0.8 -0.4
v -0.7 0.9 -0.4
v -0.7 1 -0.4
v -0.7 1.2 -0.4
v -0.7 1.5 -0.4
v -0.7 1.7 -0.4
v -0.7 1.8 -0.4
v -0.7 1.9 -0.4
v -0.6 0.9 -0.4
v -0.6 1.4 -0.4
v -0.6 1.8 -0.4
v -0.6 1.9 -0.4
v -0.6 2 -0.4
v -0.3 0 -0.4
v -0.3 0.1 -0.4
v -0.3 0.8 -0.4
v 0.3 0 -0.4
v 0.3 0.1 -0.4
v 0.3 0.8 -0.4
v 0.6 0.9 -0.4
v 0.6 1.4 -0.4
v 0.6 1.8 -0.4
v 0.6 1.9 -0.4
v 0.7 0 -0.4
v 0.7 0.1 -0.4
v 0.7 0.8 -0.4
v 0.7 0.9 -0.4
v 0.7 1 -0.4
v 0.7 1.2 -0.4
v 0.7 1.5 -0.4
v 0.7 1.7 -0.4
v 0.7 1.8 -0.4
v 0.7 2 -0.4
v 0.8 1.5 -0.4
v 0.8 1.7 -0.4
v 0.8 1.8 -0.4
v 0.9 0.9 -0.4
v 0.9 1 -0.4
v 0.9 1.2 -0.4
v 0.9 1.5 -0.4
v 0.9 1.7 -0.4
v 1 1 -0.4
v 1 1.2 -0.4
v -0.9 1 -0.5
v -0.9 1.2 -0.5
v -0.8 1.5 -0.5
v -0.8 1.7 -0.5
v -0.7 1 -0.5
v -0.7 1.2 -0.5
v -0.7 1.6 -0.5
v -0.7 1.7 -0.5
v -0.7 1.8 -0.5
v -0.6 0.9 -0.5
v -0.6 1.4 -0.5
v -0.6 1.7 -0.5
v -0.6 1.8 -0.5
v -0.6 1.9 -0.5
v -0.5 1 -0.5
v -0.5 1.3 -0.5
v 0.5 1 -0.5
v 0.5 1.3 -0.5
v 0.6 0.9 -0.5
v 0.6 1.4 -0.5
v 0.6 1.7 -0.5
v 0.6 1.8 -0.5
v 0.6 1.9 -0.5
v 0.7 1 -0.5
v 0.7 1.2 -0.5
v 0.7 1.6 -0.5
v 0.7 1.7 -0.5
v 0.7 1.8 -0.5
v 0.8 1.5 -0.5
v 0.8 1.7 -0.5
v 0.9 1 -0.5
v 0.9 1.2 -0.5
v -0.7 1.6 -0.6
v -0.7 1.7 -0.6
v -0.6 1.7 -0.6
v -0.6 1.8 -0.6
v -0.5 1 -0.6
v -0.5 1.3 -0.6
v -0.4 1.1 -0.6
v -0.4 1.2 -0.6
v 0.4 1.1 -0.6
v 0.4 1.2 -0.6
v 0.5 1 -0.6
v 0.5 1.3 -0.6
v 0.6 1.7 -0.6
v 0.6 1.8 -0.6
v 0.7 1.6 -0.6
v 0.7 1.7 -0.6
v -0.4 1.1 -0.7
v -0.4 1.2 -0.7
v 0.4 1.1 -0.7
v 0.4 1.2 -0.7
v -0.7 0 0.3
v -0.3 0 0.3
v 0.3 0 0.3
v 0.7 0 0.3
v -0.7 0 -0.4
v -0.3 0 -0.4
v 0.3 0 -0.4
v 0.7 0 -0.4
v -0.3 0.8 -0.1
v 0.3 0.8 -0.1
v -0.3 0.8 -0.4
v 0.3 0.8 -0.4
v -0.9 0.9 -0.1
v -0.7 0.9 -0.1
v 0.7 0.9 -0.1
v 0.9 0.9 -0.1
v -0.9 0.9 -0.4
v -0.7 0.9 -0.4
v -0.6 0.9 -0.4
v 0.6 0.9 -0.4
v 0.7 0.9 -0.4
v 0.9 0.9 -0.4
v -0.6 0.9 -0.5
v 0.6 0.9 -0.5
v -0.9 1 -2.98023e-08
v -0.7 1 -2.98023e-08
v 0.7 1 -2.98023e-08
v 0.9 1 -2.98023e-08
v -1 1 -0.1
v -0.9 1 -0.1
v -0.7 1 -0.1
v 0.7 1 -0.1
v 0.9 1 -0.1
v 1 1 -0.1
v -1 1 -0.4
v -0.9 1 -0.4
v -0.7 1 -0.4
v 0.7 1 -0.4
v 0.9 1 -0.4
v 1 1 -0.4
v -0.9 1 -0.5
v -0.7 1 -0.5
v -0.5 1 -0.5
v 0.5 1 -0.5
v 0.7 1 -0.5
v 0.9 1 -0.5
v -0.5 1 -0.6
v 0.5 1 -0.6
v -0.4 1.1 -0.6
v 0.4 1.1 -0.6
v -0.4 1.1 -0.7
v 0.4 1.1 -0.7
v -0.2 1.2 -2.98023e-08
v 0.2 1.2 -2.98023e-08
v -0.2 1.2 -0.1
v 0.2 1.2 -0.1
v -0.3 1.3 -2.98023e-08
v -0.2 1.3 -2.98023e-08
v 0.2 1.3 -2.98023e-08
v 0.3 1.3 -2.98023e-08
v -0.3 1.3 -0.1
v -0.2 1.3 -0.1
v 0.2 1.3 -0.1
v 0.3 1.3 -0.1
v -0.8 1.5 -0.4
v -0.7 1.5 -0.4
v 0.7 1.5 -0.4
v 0.8 1.5 -0.4
v -0.8 1.5 -0.5
v 0.8 1.5 -0.5
v -0.7 1.6 -0.5
v 0.7 1.6 -0.5
v -0.7 1.6 -0.6
v 0.7 1.6 -0.6
v -0.4 1.7 -2.98023e-08
v -0.3 1.7 -2.98023e-08
v 0.3 1.7 -2.98023e-08
v 0.4 1.7 -2.98023e-08
v -0.4 1.7 -0.1
v -0.3 1.7 -0.1
v 0.3 1.7 -0.1
v 0.4 1.7 -0.1
v -0.7 0.2 0.1
v -0.3 0.2 0.1
v 0.3 0.2 0.1
v 0.7 0.2 0.1
v -0.7 0.2 -0.1
v -0.3 0.2 -0.1
v 0.3 0.2 -0.1
v 0.7 0.2 -0.1
v -0.7 0.3 0.3
v -0.3 0.3 0.3
v 0.3 0.3 0.3
v 0.7 0.3 0.3
v -0.7 0.3 0.1
v -0.3 0.3 0.1
v 0.3 0.3 0.1
v 0.7 0.3 0.1
v -0.9 1.2 -2.98023e-08
v -0.7 1.2 -2.98023e-08
v 0.7 1.2 -2.98023e-08
v 0.9 1.2 -2.98023e-08
v -1 1.2 -0.1
v -0.9 1.2 -0.1
v -0.7 1.2 -0.1
v 0.7 1.2 -0.1
v 0.9 1.2 -0.1
v 1 1.2 -0.1
v -1 1.2 -0.4
v -0.9 1.2 -0.4
v -0.7 1.2 -0.4
v 0.7 1.2 -0.4
v 0.9 1.2 -0.4
v 1 1.2 -0.4
v -0.9 1.2 -0.5
v -0.7 1.2 -0.5
v 0.7 1.2 -0.5
v 0.9 1.2 -0.5
v -0.4 1.2 -0.6
v 0.4 1.2 -0.6
v -0.4 1.2 -0.7
v 0.4 1.2 -0.7
v -0.5 1.3 -0.5
v 0.5 1.3 -0.5
v -0.5 1.3 -0.6
v 0.5 1.3 -0.6
v -0.6 1.4 -0.4
v 0.6 1.4 -0.4
v -0.6 1.4 -0.5
v 0.6 1.4 -0.5
v -0.3 1.5 -2.98023e-08
v -0.2 1.5 -2.98023e-08
v 0.2 1.5 -2.98023e-08
v 0.3 1.5 -2.98023e-08
v -0.3 1.5 -0.1
v -0.2 1.5 -0.1
v 0.2 1.5 -0.1
v 0.3 1.5 -0.1
v -0.2 1.6 -2.98023e-08
v 0.2 1.6 -2.98023e-08
v -0.2 1.6 -0.1
v 0.2 1.6 -0.1
v -0.9 1.7 -0.1
v -0.8 1.7 -0.1
v 0.8 1.7 -0.1
v 0.9 1.7 -0.1
v -0.9 1.7 -0.2
v -0.8 1.7 -0.2
v 0.8 1.7 -0.2
v 0.9 1.7 -0.2
v -0.9 1.7 -0.3
v -0.8 1.7 -0.3
v 0.8 1.7 -0.3
v 0.9 1.7 -0.3
v -0.9 1.7 -0.4
v -0.8 1.7 -0.4
v -0.7 1.7 -0.4
v 0.7 1.7 -0.4
v 0.8 1.7 -0.4
v 0.9 1.7 -0.4
v -0.8 1.7 -0.5
v -0.7 1.7 -0.5
v -0.6 1.7 -0.5
v 0.6 1.7 -0.5
v 0.7 1.7 -0.5
v 0.8 1.7 -0.5
v -0.7 1.7 -0.6
v -0.6 1.7 -0.6
v 0.6 1.7 -0.6
v 0.7 1.7 -0.6
v -0.4 1.8 -2.98023e-08
v -0.3 1.8 -2.98023e-08
v 0.3 1.8 -2.98023e-08
v 0.4 1.8 -2.98023e-08
v -0.8 1.8 -0.1
v -0.7 1.8 -0.1
v -0.4 1.8 -0.1
v -0.3 1.8 -0.1
v 0.3 1.8 -0.1
v 0.4 1.8 -0.1
v 0.7 1.8 -0.1
v 0.8 1.8 -0.1
v -0.9 1.8 -0.2
v -0.8 1.8 -0.2
v -0.7 1.8 -0.2
v 0.7 1.8 -0.2
v 0.8 1.8 -0.2
v 0.9 1.8 -0.2
v -0.9 1.8 -0.3
v -0.8 1.8 -0.3
v -0.7 1.8 -0.3
v 0.7 1.8 -0.3
v 0.8 1.8 -0.3
v 0.9 1.8 -0.3
v -0.8 1.8 -0.4
v -0.7 1.8 -0.4
v -0.6 1.8 -0.4
v 0.6 1.8 -0.4
v 0.7 1.8 -0.4
v 0.8 1.8 -0.4
v -0.7 1.8 -0.5
v -0.6 1.8 -0.5
v 0.6 1.8 -0.5
v 0.7 1.8 -0.5
v -0.6 1.8 -0.6
v 0.6 1.8 -0.6
v -0.7 1.9 -0.1
v -0.6 1.9 -0.1
v -0.8 1.9 -0.2
v -0.7 1.9 -0.2
v -0.6 1.9 -0.2
v 0.7 1.9 -0.2
v 0.8 1.9 -0.2
v -0.8 1.9 -0.3
v -0.7 1.9 -0.3
v -0.6 1.9 -0.3
v 0.7 1.9 -0.3
v 0.8 1.9 -0.3
v -0.7 1.9 -0.4
v -0.6 1.9 -0.4
v 0.6 1.9 -0.4
v -0.6 1.9 -0.5
v 0.6 1.9 -0.5
v -0.6 2 -0.1
v 0.7 2 -0.1
v -0.7 2 -0.2
v -0.6 2 -0.2
v -0.7 2 -0.3
v -0.6 2 -0.3
v -0.6 2 -0.4
v 0.7 2 -0.4

# faces
f 3/1/1 2/1/1 1/1/1
f 4/1/1 2/1/1 3/1/1
f 8/1/1 6/1/1 5/1/1
f 9/1/1 6/1/1 8/1/1
f 11/1/1 8/1/1 7/1/1
f 12/1/1 8/1/1 11/1/1
f 13/1/1 10/1/1 9/1/1
f 14/1/1 10/1/1 13/1/1
f 15/1/1 13/1/1 12/1/1
f 16/1/1 13/1/1 15/1/1
f 17/4/1 16/4/1 15/4/1
f 18/4/1 16/4/1 17/4/1
f 19/4/1 16/4/1 18/4/1
f 20/4/1 16/4/1 19/4/1
f 21/4/1 19/4/1 18/4/1
f 22/4/1 19/4/1 21/4/1
f 28/4/1 24/4/1 23/4/1
f 29/4/1 24/4/1 28/4/1
f 30/4/1 26/4/1 25/4/1
f 31/4/1 26/4/1 30/4/1
f 32/4/1 28/4/1 27/4/1
f 33/4/1 28/4/1 32/4/1
f 34/4/1 32/4/1 31/4/1
f 35/4/1 32/4/1 34/4/1
f 38/5/1 37/5/1 36/5/1
f 39/5/1 37/5/1 38/5/1
f 40/5/1 38/5/1 36/5/1
f 41/1/1 39/1/1 38/1/1
f 41/5/1 38/5/1 40/5/1
f 42/5/1 40/5/1 36/5/1
f 43/5/1 40/5/1 42/5/1
f 44/1/1 39/1/1 41/1/1
f 45/1/1 39/1/1 44/1/1
f 46/2/1 45/2/1 44/2/1
f 47/2/1 45/2/1 46/2/1
f 51/4/1 49/4/1 48/4/1
f 52/4/1 49/4/1 51/4/1
f 56/4/1 51/4/1 50/4/1
f 57/4/1 51/4/1 56/4/1
f 58/4/1 54/4/1 53/4/1
f 59/4/1 54/4/1 58/4/1
f 60/4/1 56/4/1 55/4/1
f 61/4/1 56/4/1 60/4/1
f 62/4/1 60/4/1 59/4/1
f 63/4/1 60/4/1 62/4/1
f 66/2/1 65/2/1 64/2/1
f 67/2/1 65/2/1 66/2/1
f 71/4/1 69/4/1 68/4/1
f 72/4/1 69/4/1 71/4/1
f 76/4/1 71/4/1 70/4/1
f 77/4/1 71/4/1 76/4/1
f 78/4/1 74/4/1 73/4/1
f 79/4/1 74/4/1 78/4/1
f 80/4/1 76/4/1 75/4/1
f 81/4/1 76/4/1 80/4/1
f 84/2/1 83/2/1 82/2/1
f 85/2/1 83/2/1 84/2/1
f 88/2/1 87/2/1 86/2/1
f 89/2/1 87/2/1 88/2/1
f 92/5/1 91/5/1 90/5/1
f 93/5/1 91/5/1 92/5/1
f 96/5/1 95/5/1 94/5/1
f 97/5/1 95/5/1 96/5/1
f 100/5/1 99/5/1 98/5/1
f 101/5/1 99/5/1 100/5/1
f 104/5/1 103/5/1 102/5/1
f 105/5/1 103/5/1 104/5/1
f 108/5/1 107/5/1 106/5/1
f 109/5/1 107/5/1 108/5/1
f 110/5/1 108/5/1 106/5/1
f 111/1/1 109/1/1 108/1/1
f 111/5/1 108/5/1 110/5/1
f 112/5/1 110/5/1 106/5/1
f 113/5/1 110/5/1 112/5/1
f 114/1/1 109/1/1 111/1/1
f 115/1/1 109/1/1 114/1/1
f 118/5/1 117/5/1 116/5/1
f 119/5/1 117/5/1 118/5/1
f 124/1/1 121/1/1 120/1/1
f 125/1/1 121/1/1 124/1/1
f 126/1/1 123/1/1 122/1/1
f 127/1/1 123/1/1 126/1/1
f 128/1/2 129/1/2 132/1/2
f 132/1/2 129/1/2 133/1/2
f 130/1/2 131/1/2 134/1/2
f 134/1/2 131/1/2 135/1/2
f 136/5/2 137/5/2 138/5/2
f 138/5/2 137/5/2 139/5/2
f 136/5/2 138/5/2 140/5/2
f 138/1/2 139/1/2 141/1/2
f 140/5/2 138/5/2 141/5/2
f 136/5/2 140/5/2 142/5/2
f 142/5/2 140/5/2 143/5/2
f 141/1/2 139/1/2 144/1/2
f 144/1/2 139/1/2 145/1/2
f 146/5/2 147/5/2 148/5/2
f 148/5/2 147/5/2 149/5/2
f 150/5/2 151/5/2 152/5/2
f 152/5/2 151/5/2 153/5/2
f 154/5/2 155/5/2 156/5/2
f 156/5/2 155/5/2 157/5/2
f 158/5/2 159/5/2 160/5/2
f 160/5/2 159/5/2 161/5/2
f 162/2/2 163/2/2 164/2/2
f 164/2/2 163/2/2 165/2/2
f 166/5/2 167/5/2 168/5/2
f 168/5/2 167/5/2 169/5/2
f 170/2/2 171/2/2 172/2/2
f 172/2/2 171/2/2 173/2/2
f 174/2/2 175/2/2 176/2/2
f 176/2/2 175/2/2 177/2/2
f 178/4/2 179/4/2 181/4/2
f 181/4/2 179/4/2 182/4/2
f 180/4/2 181/4/2 183/4/2
f 183/4/2 181/4/2 184/4/2
f 185/5/2 186/5/2 187/5/2
f 187/5/2 186/5/2 188/5/2
f 185/5/2 187/5/2 189/5/2
f 187/1/2 188/1/2 190/1/2
f 189/5/2 187/5/2 190/5/2
f 185/5/2 189/5/2 191/5/2
f 191/5/2 189/5/2 192/5/2
f 190/1/2 188/1/2 193/1/2
f 193/1/2 188/1/2 194/1/2
f 193/2/2 194/2/2 195/2/2
f 195/2/2 194/2/2 196/2/2
f 197/4/2 198/4/2 200/4/2
f 200/4/2 198/4/2 201/4/2
f 199/4/2 200/4/2 205/4/2
f 205/4/2 200/4/2 206/4/2
f 202/4/2 203/4/2 207/4/2
f 204/4/2 205/4/2 208/4/2
f 202/4/2 207/4/2 209/4/2
f 207/4/2 208/4/2 209/4/2
f 208/4/2 205/4/2 210/4/2
f 209/4/2 208/4/2 210/4/2
f 211/4/2 212/4/2 216/4/2
f 216/4/2 212/4/2 217/4/2
f 213/4/2 214/4/2 218/4/2
f 218/4/2 214/4/2 219/4/2
f 215/4/2 216/4/2 220/4/2
f 220/4/2 216/4/2 221/4/2
f 219/4/2 220/4/2 222/4/2
f 222/4/2 220/4/2 223/4/2
f 224/1/2 225/1/2 227/1/2
f 227/1/2 225/1/2 228/1/2
f 226/1/2 227/1/2 230/1/2
f 230/1/2 227/1/2 231/1/2
f 228/1/2 229/1/2 232/1/2
f 232/1/2 229/1/2 233/1/2
f 231/1/2 232/1/2 234/1/2
f 234/1/2 232/1/2 235/1/2
f 234/4/2 235/4/2 236/4/2
f 236/4/2 235/4/2 237/4/2
f 237/4/2 235/4/2 238/4/2
f 238/4/2 235/4/2 239/4/2
f 237/4/2 238/4/2 240/4/2
f 240/4/2 238/4/2 241/4/2
f 242/1/2 243/1/2 244/1/2
f 244/1/2 243/1/2 245/1/2
f 248/5/3 247/5/3 246/5/3
f 249/5/3 247/5/3 248/5/3
f 252/5/3 251/5/3 250/5/3
f 253/5/3 251/5/3 252/5/3
f 256/1/3 255/1/3 254/1/3
f 257/1/3 255/1/3 256/1/3
f 262/5/3 259/5/3 258/5/3
f 263/5/3 259/5/3 262/5/3
f 265/5/3 261/5/3 260/5/3
f 266/5/3 261/5/3 265/5/3
f 268/5/3 265/5/3 264/5/3
f 269/3/3 266/3/3 265/3/3
f 269/5/3 265/5/3 268/5/3
f 270/5/3 267/5/3 266/5/3
f 270/3/3 266/3/3 269/3/3
f 271/5/3 267/5/3 270/5/3
f 272/5/3 270/5/3 269/5/3
f 273/5/3 270/5/3 272/5/3
f 276/5/3 275/5/3 274/5/3
f 277/5/3 275/5/3 276/5/3
f 280/1/3 279/1/3 278/1/3
f 281/1/3 279/1/3 280/1/3
f 285/1/3 283/1/3 282/1/3
f 286/1/3 283/1/3 285/1/3
f 289/4/3 288/4/3 287/4/3
f 293/1/3 285/1/3 284/1/3
f 294/1/3 285/1/3 293/1/3
f 295/1/3 287/1/3 286/1/3
f 296/4/3 289/4/3 287/4/3
f 296/4/3 290/4/3 289/4/3
f 296/1/3 287/1/3 295/1/3
f 297/4/3 290/4/3 296/4/3
f 299/4/3 297/4/3 296/4/3
f 299/4/3 298/4/3 297/4/3
f 301/4/3 299/4/3 296/4/3
f 301/4/3 300/4/3 299/4/3
f 302/4/3 300/4/3 301/4/3
f 303/1/3 292/1/3 291/1/3
f 304/2/3 294/2/3 293/2/3
f 304/1/3 292/1/3 303/1/3
f 304/2/3 295/2/3 294/2/3
f 304/2/3 293/2/3 292/2/3
f 304/2/3 296/2/3 295/2/3
f 305/2/3 296/2/3 304/2/3
f 306/4/3 301/4/3 296/4/3
f 306/2/3 296/2/3 305/2/3
f 307/4/3 301/4/3 306/4/3
f 308/4/3 300/4/3 302/4/3
f 309/2/3 305/2/3 304/2/3
f 310/2/3 305/2/3 309/2/3
f 311/4/3 307/4/3 306/4/3
f 311/4/3 308/4/3 307/4/3
f 312/4/3 308/4/3 311/4/3
f 313/2/3 309/2/3 304/2/3
f 316/4/3 308/4/3 312/4/3
f 318/2/3 314/2/3 313/2/3
f 318/2/3 313/2/3 304/2/3
f 319/2/3 314/2/3 318/2/3
f 320/4/3 316/4/3 315/4/3
f 321/4/3 308/4/3 316/4/3
f 321/4/3 316/4/3 320/4/3
f 322/4/3 300/4/3 308/4/3
f 322/4/3 308/4/3 321/4/3
f 323/4/3 321/4/3 320/4/3
f 324/4/3 300/4/3 322/4/3
f 325/1/3 318/1/3 317/1/3
f 326/2/3 319/2/3 318/2/3
f 326/1/3 318/1/3 325/1/3
f 326/2/3 320/2/3 319/2/3
f 327/2/3 320/2/3 326/2/3
f 328/2/3 320/2/3 327/2/3
f 329/2/3 320/2/3 328/2/3
f 330/4/3 323/4/3 320/4/3
f 330/2/3 320/2/3 329/2/3
f 330/4/3 324/4/3 323/4/3
f 331/4/3 300/4/3 324/4/3
f 331/4/3 324/4/3 330/4/3
f 332/4/3 300/4/3 331/4/3
f 333/4/3 331/4/3 330/4/3
f 334/4/3 331/4/3 333/4/3
f 335/1/3 328/1/3 327/1/3
f 336/1/3 328/1/3 335/1/3
f 337/1/3 330/1/3 329/1/3
f 338/4/3 333/4/3 330/4/3
f 338/1/3 330/1/3 337/1/3
f 339/4/3 333/4/3 338/4/3
f 340/1/3 337/1/3 336/1/3
f 341/1/3 337/1/3 340/1/3
f 344/4/3 343/4/3 342/4/3
f 345/4/3 343/4/3 344/4/3
f 347/4/3 346/4/3 345/4/3
f 348/4/3 346/4/3 347/4/3
f 350/4/3 349/4/3 348/4/3
f 351/4/3 349/4/3 350/4/3
f 355/4/3 353/4/3 352/4/3
f 356/4/3 353/4/3 355/4/3
f 357/4/3 355/4/3 354/4/3
f 358/4/3 355/4/3 357/4/3
f 359/5/4 360/5/4 361/5/4
f 361/5/4 360/5/4 362/5/4
f 363/5/4 364/5/4 365/5/4
f 365/5/4 364/5/4 366/5/4
f 367/4/4 368/4/4 369/4/4
f 369/4/4 368/4/4 370/4/4
f 370/4/4 371/4/4 372/4/4
f 372/4/4 371/4/4 373/4/4
f 373/4/4 374/4/4 375/4/4
f 375/4/4 374/4/4 376/4/4
f 377/4/4 378/4/4 380/4/4
f 380/4/4 378/4/4 381/4/4
f 379/4/4 380/4/4 382/4/4
f 382/4/4 380/4/4 383/4/4
f 384/1/4 385/1/4 387/1/4
f 387/1/4 385/1/4 388/1/4
f 389/4/4 390/4/4 391/4/4
f 388/1/4 389/1/4 391/1/4
f 391/4/4 390/4/4 392/4/4
f 386/1/4 387/1/4 397/1/4
f 397/1/4 387/1/4 398/1/4
f 388/1/4 391/1/4 399/1/4
f 399/1/4 391/1/4 400/1/4
f 392/4/4 393/4/4 401/4/4
f 401/4/4 393/4/4 402/4/4
f 397/2/4 398/2/4 404/2/4
f 399/2/4 400/2/4 404/2/4
f 396/2/4 397/2/4 404/2/4
f 398/2/4 399/2/4 404/2/4
f 404/2/4 400/2/4 405/2/4
f 402/4/4 403/4/4 406/4/4
f 406/4/4 403/4/4 407/4/4
f 394/5/4 395/5/4 409/5/4
f 395/1/4 396/1/4 410/1/4
f 409/5/4 395/5/4 410/5/4
f 396/2/4 404/2/4 411/2/4
f 410/1/4 396/1/4 411/1/4
f 411/2/4 404/2/4 414/2/4
f 414/2/4 404/2/4 415/2/4
f 405/2/4 400/2/4 416/2/4
f 407/4/4 408/4/4 418/4/4
f 412/5/4 413/5/4 419/5/4
f 413/1/4 414/1/4 420/1/4
f 419/5/4 413/5/4 420/5/4
f 414/2/4 415/2/4 421/2/4
f 420/1/4 414/1/4 421/1/4
f 415/2/4 416/2/4 421/2/4
f 421/2/4 416/2/4 422/2/4
f 422/2/4 416/2/4 423/2/4
f 423/2/4 416/2/4 424/2/4
f 416/2/4 400/2/4 425/2/4
f 424/2/4 416/2/4 425/2/4
f 417/4/4 418/4/4 427/4/4
f 418/4/4 408/4/4 428/4/4
f 427/4/4 418/4/4 428/4/4
f 424/1/4 425/1/4 429/1/4
f 426/4/4 427/4/4 430/4/4
f 430/4/4 427/4/4 431/4/4
f 422/1/4 423/1/4 432/1/4
f 432/1/4 423/1/4 433/1/4
f 424/1/4 429/1/4 434/1/4
f 429/4/4 430/4/4 435/4/4
f 434/1/4 429/1/4 435/1/4
f 435/4/4 430/4/4 436/4/4
f 433/1/4 434/1/4 437/1/4
f 437/1/4 434/1/4 438/1/4
f 439/1/4 440/1/4 443/1/4
f 443/1/4 440/1/4 444/1/4
f 441/4/4 442/4/4 445/4/4
f 445/4/4 442/4/4 446/4/4
f 446/4/4 447/4/4 450/4/4
f 450/4/4 447/4/4 451/4/4
f 448/2/4 449/2/4 453/2/4
f 453/2/4 449/2/4 454/2/4
f 448/2/4 453/2/4 455/2/4
f 454/2/4 449/2/4 456/2/4
f 448/2/4 455/2/4 457/2/4
f 455/2/4 456/2/4 457/2/4
f 456/2/4 449/2/4 458/2/4
f 457/2/4 456/2/4 458/2/4
f 451/4/4 452/4/4 460/4/4
f 460/4/4 452/4/4 461/4/4
f 441/4/4 445/4/4 464/4/4
f 459/4/4 460/4/4 465/4/4
f 465/4/4 460/4/4 466/4/4
f 441/4/4 464/4/4 467/4/4
f 464/4/4 465/4/4 467/4/4
f 467/4/4 465/4/4 468/4/4
f 462/1/4 463/1/4 469/1/4
f 469/1/4 463/1/4 470/1/4
f 471/4/4 472/4/4 473/4/4
f 475/2/4 476/2/4 477/2/4
f 477/2/4 476/2/4 478/2/4
f 475/2/4 477/2/4 479/2/4
f 478/2/4 476/2/4 480/2/4
f 475/2/4 479/2/4 481/2/4
f 479/2/4 480/2/4 481/2/4
f 480/2/4 476/2/4 482/2/4
f 481/2/4 480/2/4 482/2/4
f 471/4/4 473/4/4 483/4/4
f 473/4/4 474/4/4 483/4/4
f 483/4/4 474/4/4 484/4/4
f 471/4/4 483/4/4 485/4/4
f 485/4/4 483/4/4 486/4/4
f 487/2/4 488/2/4 489/2/4
f 489/2/4 488/2/4 490/2/4
f 495/5/5 492/5/5 491/5/5
f 496/5/5 492/5/5 495/5/5
f 497/5/5 494/5/5 493/5/5
f 498/5/5 494/5/5 497/5/5
f 501/2/5 500/2/5 499/2/5
f 502/2/5 500/2/5 501/2/5
f 507/1/5 504/1/5 503/1/5
f 508/1/5 504/1/5 507/1/5
f 511/1/5 506/1/5 505/1/5
f 512/1/5 506/1/5 511/1/5
f 513/2/5 510/2/5 509/2/5
f 514/2/5 510/2/5 513/2/5
f 520/1/5 516/1/5 515/1/5
f 521/1/5 516/1/5 520/1/5
f 522/1/5 518/1/5 517/1/5
f 523/1/5 518/1/5 522/1/5
f 525/1/5 520/1/5 519/1/5
f 526/1/5 520/1/5 525/1/5
f 529/1/5 524/1/5 523/1/5
f 530/1/5 524/1/5 529/1/5
f 531/1/5 527/1/5 526/1/5
f 532/1/5 527/1/5 531/1/5
f 535/1/5 529/1/5 528/1/5
f 536/1/5 529/1/5 535/1/5
f 537/2/5 534/2/5 533/2/5
f 538/2/5 534/2/5 537/2/5
f 541/2/5 540/2/5 539/2/5
f 542/2/5 540/2/5 541/2/5
f 545/5/5 544/5/5 543/5/5
f 546/5/5 544/5/5 545/5/5
f 551/5/5 548/5/5 547/5/5
f 552/5/5 548/5/5 551/5/5
f 553/5/5 550/5/5 549/5/5
f 554/5/5 550/5/5 553/5/5
f 559/4/5 556/4/5 555/4/5
f 559/4/5 558/4/5 557/4/5
f 559/4/5 557/4/5 556/4/5
f 560/4/5 558/4/5 559/4/5
f 563/4/5 562/4/5 561/4/5
f 564/4/5 562/4/5 563/4/5
f 569/5/5 566/5/5 565/5/5
f 570/5/5 566/5/5 569/5/5
f 571/5/5 568/5/5 567/5/5
f 572/5/5 568/5/5 571/5/5
f 573/5/6 574/5/6 577/5/6
f 577/5/6 574/5/6 578/5/6
f 575/5/6 576/5/6 579/5/6
f 579/5/6 576/5/6 580/5/6
f 581/5/6 582/5/6 585/5/6
f 585/5/6 582/5/6 586/5/6
f 583/5/6 584/5/6 587/5/6
f 587/5/6 584/5/6 588/5/6
f 589/1/6 590/1/6 594/1/6
f 594/1/6 590/1/6 595/1/6
f 591/1/6 592/1/6 596/1/6
f 596/1/6 592/1/6 597/1/6
f 593/1/6 594/1/6 599/1/6
f 599/1/6 594/1/6 600/1/6
f 597/1/6 598/1/6 603/1/6
f 603/1/6 598/1/6 604/1/6
f 600/1/6 601/1/6 605/1/6
f 605/1/6 601/1/6 606/1/6
f 602/1/6 603/1/6 607/1/6
f 607/1/6 603/1/6 608/1/6
f 609/2/6 610/2/6 611/2/6
f 611/2/6 610/2/6 612/2/6
f 613/2/6 614/2/6 615/2/6
f 615/2/6 614/2/6 616/2/6
f 617/2/6 618/2/6 619/2/6
f 619/2/6 618/2/6 620/2/6
f 621/5/6 622/5/6 625/5/6
f 625/5/6 622/5/6 626/5/6
f 623/5/6 624/5/6 627/5/6
f 627/5/6 624/5/6 628/5/6
f 629/5/6 630/5/6 631/5/6
f 631/5/6 630/5/6 632/5/6
f 633/4/6 634/4/6 637/4/6
f 637/4/6 634/4/6 638/4/6
f 635/4/6 636/4/6 639/4/6
f 639/4/6 636/4/6 640/4/6
f 641/4/6 642/4/6 645/4/6
f 645/4/6 642/4/6 646/4/6
f 643/4/6 644/4/6 649/4/6
f 649/4/6 644/4/6 650/4/6
f 646/4/6 647/4/6 651/4/6
f 651/4/6 647/4/6 652/4/6
f 648/4/6 649/4/6 655/4/6
f 655/4/6 649/4/6 656/4/6
f 652/4/6 653/4/6 657/4/6
f 657/4/6 653/4/6 658/4/6
f 654/4/6 655/4/6 659/4/6
f 659/4/6 655/4/6 660/4/6
f 661/5/6 662/5/6 667/5/6
f 667/5/6 662/5/6 668/5/6
f 663/5/6 664/5/6 669/5/6
f 669/5/6 664/5/6 670/5/6
f 665/4/6 666/4/6 674/4/6
f 674/4/6 666/4/6 675/4/6
f 671/4/6 672/4/6 676/4/6
f 676/4/6 672/4/6 677/4/6
f 673/4/6 674/4/6 679/4/6
f 679/4/6 674/4/6 680/4/6
f 677/4/6 678/4/6 683/4/6
f 683/4/6 678/4/6 684/4/6
f 680/4/6 681/4/6 685/4/6
f 685/4/6 681/4/6 686/4/6
f 682/4/6 683/4/6 689/4/6
f 689/4/6 683/4/6 690/4/6
f 686/4/6 687/4/6 691/4/6
f 691/4/6 687/4/6 692/4/6
f 688/4/6 689/4/6 693/4/6
f 693/4/6 689/4/6 694/4/6
f 692/4/6 693/4/6 695/4/6
f 695/4/6 693/4/6 696/4/6
f 697/4/6 698/4/6 700/4/6
f 700/4/6 698/4/6 701/4/6
f 699/4/6 700/4/6 704/4/6
f 704/4/6 700/4/6 705/4/6
f 702/4/6 703/4/6 707/4/6
f 707/4/6 703/4/6 708/4/6
f 705/4/6 706/4/6 709/4/6
f 709/4/6 706/4/6 710/4/6
f 710/4/6 711/4/6 712/4/6
f 712/4/6 711/4/6 713/4/6
f 714/4/6 715/4/6 717/4/6
f 716/4/6 717/4/6 718/4/6
f 717/4/6 715/4/6 719/4/6
f 718/4/6 717/4/6 719/4/6
f 719/4/6 715/4/6 720/4/6
f 720/4/6 715/4/6 721/4/6
